<?xml version="1.0" encoding="UTF-8" standalone="no"?>
<svg xmlns="http://www.w3.org/2000/svg" contentScriptType="application/ecmascript" contentStyleType="text/css"
     height="232px" preserveAspectRatio="none" style="width:260px;height:232px;background:#FFFFFF;" version="1.1"
     viewBox="0 0 260 232" width="260px" zoomAndPan="magnify">
    <defs>
        <filter height="300%" id="f2fv2dpxtw1gk" width="300%" x="-1" y="-1">
            <feGaussianBlur result="blurOut" stdDeviation="2.0"/>
            <feColorMatrix in="blurOut" result="blurOut2" type="matrix"
                           values="0 0 0 0 0 0 0 0 0 0 0 0 0 0 0 0 0 0 .4 0"/>
            <feOffset dx="4.0" dy="4.0" in="blurOut2" result="blurOut3"/>
            <feBlend in="SourceGraphic" in2="blurOut3" mode="normal"/>
        </filter>
    </defs>
    <g><!--MD5=[3e49f4803b554c92c0b70fce4d7094e5]
class Facility-->
        <rect codeLine="5" fill="#FEFECE" filter="url(#f2fv2dpxtw1gk)" height="103.3438" id="Facility"
              style="stroke:#A80036;stroke-width:1.5;" width="86" x="46" y="115"/>
        <ellipse cx="68.65" cy="131" fill="#ADD1B2" rx="11" ry="11" style="stroke:#A80036;stroke-width:1.0;"/>
        <path d="M70.65,127.5 Q70.8531,127 71.0875,126.75 Q71.3219,126.5 71.5875,126.5 Q72.0563,126.5 72.3531,126.7813 Q72.65,127.0625 72.65,127.7188 L72.65,129.2813 Q72.65,129.9375 72.3688,130.2188 Q72.0875,130.5 71.65,130.5 Q71.2594,130.5 71.0094,130.3281 Q70.7594,130.1563 70.65,129.7031 Q70.6031,129.3906 70.4313,129.2188 Q70.1188,128.8906 69.5563,128.7031 Q68.9938,128.5 68.4313,128.5 Q67.7281,128.5 67.1344,128.7813 Q66.5563,129.0625 66.1031,129.6875 Q65.65,130.3125 65.65,131.1719 L65.65,132.0938 Q65.65,133.125 66.4938,133.8125 Q67.3375,134.5 68.8375,134.5 Q69.7281,134.5 70.3531,134.2969 Q70.7125,134.1875 71.1188,133.8281 Q71.3844,133.625 71.525,133.5625 Q71.6656,133.5 71.8375,133.5 Q72.1656,133.5 72.4,133.7656 Q72.65,134.0156 72.65,134.375 Q72.65,134.7188 72.3063,135.125 Q71.8063,135.7188 71.0094,136.0469 Q69.9625,136.5 68.6813,136.5 Q67.1813,136.5 65.9781,135.9063 Q65.0094,135.4375 64.3219,134.4219 Q63.65,133.4063 63.65,132.2031 L63.65,131.1094 Q63.65,129.8594 64.2438,128.7656 Q64.8531,127.6719 65.9,127.0938 Q66.9625,126.5 68.15,126.5 Q68.8688,126.5 69.4938,126.75 Q70.1188,127 70.65,127.5 Z "
              fill="#000000"/>
        <text fill="#000000" font-family="sans-serif" font-size="12" lengthAdjust="spacing" textLength="37" x="84.35"
              y="135.9102">Facility
        </text>
        <line style="stroke:#A80036;stroke-width:1.5;" x1="47" x2="131" y1="147" y2="147"/>
        <rect fill="none" height="6" style="stroke:#C82930;stroke-width:1.0;" width="6" x="54" y="155"/>
        <text fill="#000000" font-family="sans-serif" font-size="11" lengthAdjust="spacing" textLength="60" x="66"
              y="162.4189">Identification
        </text>
        <rect fill="none" height="6" style="stroke:#C82930;stroke-width:1.0;" width="6" x="54" y="168.8359"/>
        <text fill="#000000" font-family="sans-serif" font-size="11" lengthAdjust="spacing" textLength="27" x="66"
              y="176.2549">Name
        </text>
        <rect fill="none" height="6" style="stroke:#C82930;stroke-width:1.0;" width="6" x="54" y="182.6719"/>
        <text fill="#000000" font-family="sans-serif" font-size="11" lengthAdjust="spacing" textLength="45" x="66"
              y="190.0908">Continent
        </text>
        <rect fill="none" height="6" style="stroke:#C82930;stroke-width:1.0;" width="6" x="54" y="196.5078"/>
        <text fill="#000000" font-family="sans-serif" font-size="11" lengthAdjust="spacing" textLength="38" x="66"
              y="203.9268">Country
        </text>
        <line style="stroke:#A80036;stroke-width:1.5;" x1="47" x2="131" y1="210.3438" y2="210.3438"/><!--MD5=[4f1f3706c1a355a8488e154afcaed5df]
class Location-->
        <rect codeLine="12" fill="#FEFECE" filter="url(#f2fv2dpxtw1gk)" height="75.6719" id="Location"
              style="stroke:#A80036;stroke-width:1.5;" width="79" x="167.5" y="128.5"/>
        <ellipse cx="182.5" cy="144.5" fill="#ADD1B2" rx="11" ry="11" style="stroke:#A80036;stroke-width:1.0;"/>
        <path d="M184.5,141 Q184.7031,140.5 184.9375,140.25 Q185.1719,140 185.4375,140 Q185.9063,140 186.2031,140.2813 Q186.5,140.5625 186.5,141.2188 L186.5,142.7813 Q186.5,143.4375 186.2188,143.7188 Q185.9375,144 185.5,144 Q185.1094,144 184.8594,143.8281 Q184.6094,143.6563 184.5,143.2031 Q184.4531,142.8906 184.2813,142.7188 Q183.9688,142.3906 183.4063,142.2031 Q182.8438,142 182.2813,142 Q181.5781,142 180.9844,142.2813 Q180.4063,142.5625 179.9531,143.1875 Q179.5,143.8125 179.5,144.6719 L179.5,145.5938 Q179.5,146.625 180.3438,147.3125 Q181.1875,148 182.6875,148 Q183.5781,148 184.2031,147.7969 Q184.5625,147.6875 184.9688,147.3281 Q185.2344,147.125 185.375,147.0625 Q185.5156,147 185.6875,147 Q186.0156,147 186.25,147.2656 Q186.5,147.5156 186.5,147.875 Q186.5,148.2188 186.1563,148.625 Q185.6563,149.2188 184.8594,149.5469 Q183.8125,150 182.5313,150 Q181.0313,150 179.8281,149.4063 Q178.8594,148.9375 178.1719,147.9219 Q177.5,146.9063 177.5,145.7031 L177.5,144.6094 Q177.5,143.3594 178.0938,142.2656 Q178.7031,141.1719 179.75,140.5938 Q180.8125,140 182,140 Q182.7188,140 183.3438,140.25 Q183.9688,140.5 184.5,141 Z "
              fill="#000000"/>
        <text fill="#000000" font-family="sans-serif" font-size="12" lengthAdjust="spacing" textLength="47" x="196.5"
              y="149.4102">Location
        </text>
        <line style="stroke:#A80036;stroke-width:1.5;" x1="168.5" x2="245.5" y1="160.5" y2="160.5"/>
        <rect fill="none" height="6" style="stroke:#C82930;stroke-width:1.0;" width="6" x="175.5" y="168.5"/>
        <text fill="#000000" font-family="sans-serif" font-size="11" lengthAdjust="spacing" textLength="38" x="187.5"
              y="175.9189">Latitude
        </text>
        <rect fill="none" height="6" style="stroke:#C82930;stroke-width:1.0;" width="6" x="175.5" y="182.3359"/>
        <text fill="#000000" font-family="sans-serif" font-size="11" lengthAdjust="spacing" textLength="47" x="187.5"
              y="189.7549">Longitude
        </text>
        <line style="stroke:#A80036;stroke-width:1.5;" x1="168.5" x2="245.5" y1="196.1719" y2="196.1719"/><!--MD5=[a0bfe97ac0a38e6e74cc1c7c7b744b71]
class Port-->
        <rect codeLine="17" fill="#FEFECE" filter="url(#f2fv2dpxtw1gk)" height="48" id="Port"
              style="stroke:#A80036;stroke-width:1.5;" width="54" x="7" y="7"/>
        <ellipse cx="22" cy="23" fill="#ADD1B2" rx="11" ry="11" style="stroke:#A80036;stroke-width:1.0;"/>
        <path d="M24,19.5 Q24.2031,19 24.4375,18.75 Q24.6719,18.5 24.9375,18.5 Q25.4063,18.5 25.7031,18.7813 Q26,19.0625 26,19.7188 L26,21.2813 Q26,21.9375 25.7188,22.2188 Q25.4375,22.5 25,22.5 Q24.6094,22.5 24.3594,22.3281 Q24.1094,22.1563 24,21.7031 Q23.9531,21.3906 23.7813,21.2188 Q23.4688,20.8906 22.9063,20.7031 Q22.3438,20.5 21.7813,20.5 Q21.0781,20.5 20.4844,20.7813 Q19.9063,21.0625 19.4531,21.6875 Q19,22.3125 19,23.1719 L19,24.0938 Q19,25.125 19.8438,25.8125 Q20.6875,26.5 22.1875,26.5 Q23.0781,26.5 23.7031,26.2969 Q24.0625,26.1875 24.4688,25.8281 Q24.7344,25.625 24.875,25.5625 Q25.0156,25.5 25.1875,25.5 Q25.5156,25.5 25.75,25.7656 Q26,26.0156 26,26.375 Q26,26.7188 25.6563,27.125 Q25.1563,27.7188 24.3594,28.0469 Q23.3125,28.5 22.0313,28.5 Q20.5313,28.5 19.3281,27.9063 Q18.3594,27.4375 17.6719,26.4219 Q17,25.4063 17,24.2031 L17,23.1094 Q17,21.8594 17.5938,20.7656 Q18.2031,19.6719 19.25,19.0938 Q20.3125,18.5 21.5,18.5 Q22.2188,18.5 22.8438,18.75 Q23.4688,19 24,19.5 Z "
              fill="#000000"/>
        <text fill="#000000" font-family="sans-serif" font-size="12" lengthAdjust="spacing" textLength="22" x="36"
              y="27.9102">Port
        </text>
        <line style="stroke:#A80036;stroke-width:1.5;" x1="8" x2="60" y1="39" y2="39"/>
        <line style="stroke:#A80036;stroke-width:1.5;" x1="8" x2="60" y1="47" y2="47"/><!--MD5=[c5149b4909ffd2688ff51a939867f774]
class Warehouse-->
        <rect codeLine="20" fill="#FEFECE" filter="url(#f2fv2dpxtw1gk)" height="48" id="Warehouse"
              style="stroke:#A80036;stroke-width:1.5;" width="96" x="96" y="7"/>
        <ellipse cx="111" cy="23" fill="#ADD1B2" rx="11" ry="11" style="stroke:#A80036;stroke-width:1.0;"/>
        <path d="M113,19.5 Q113.2031,19 113.4375,18.75 Q113.6719,18.5 113.9375,18.5 Q114.4063,18.5 114.7031,18.7813 Q115,19.0625 115,19.7188 L115,21.2813 Q115,21.9375 114.7188,22.2188 Q114.4375,22.5 114,22.5 Q113.6094,22.5 113.3594,22.3281 Q113.1094,22.1563 113,21.7031 Q112.9531,21.3906 112.7813,21.2188 Q112.4688,20.8906 111.9063,20.7031 Q111.3438,20.5 110.7813,20.5 Q110.0781,20.5 109.4844,20.7813 Q108.9063,21.0625 108.4531,21.6875 Q108,22.3125 108,23.1719 L108,24.0938 Q108,25.125 108.8438,25.8125 Q109.6875,26.5 111.1875,26.5 Q112.0781,26.5 112.7031,26.2969 Q113.0625,26.1875 113.4688,25.8281 Q113.7344,25.625 113.875,25.5625 Q114.0156,25.5 114.1875,25.5 Q114.5156,25.5 114.75,25.7656 Q115,26.0156 115,26.375 Q115,26.7188 114.6563,27.125 Q114.1563,27.7188 113.3594,28.0469 Q112.3125,28.5 111.0313,28.5 Q109.5313,28.5 108.3281,27.9063 Q107.3594,27.4375 106.6719,26.4219 Q106,25.4063 106,24.2031 L106,23.1094 Q106,21.8594 106.5938,20.7656 Q107.2031,19.6719 108.25,19.0938 Q109.3125,18.5 110.5,18.5 Q111.2188,18.5 111.8438,18.75 Q112.4688,19 113,19.5 Z "
              fill="#000000"/>
        <text fill="#000000" font-family="sans-serif" font-size="12" lengthAdjust="spacing" textLength="64" x="125"
              y="27.9102">Warehouse
        </text>
        <line style="stroke:#A80036;stroke-width:1.5;" x1="97" x2="191" y1="39" y2="39"/>
        <line style="stroke:#A80036;stroke-width:1.5;" x1="97" x2="191" y1="47" y2="47"/><!--MD5=[84e5954e5c0ec0bb5e4a78c2c9fbb3f2]
link Facility to Location-->
        <path codeLine="23" d="M132.33,166.5 C142.26,166.5 152.2,166.5 162.13,166.5 " fill="none"
              id="Facility-to-Location" style="stroke:#A80036;stroke-width:1.0;"/>
        <polygon fill="#A80036" points="167.33,166.5,158.33,162.5,162.33,166.5,158.33,170.5,167.33,166.5"
                 style="stroke:#A80036;stroke-width:1.0;"/><!--MD5=[d0d077065bf11135d2617c9a95a2b826]
link Port to Facility-->
        <path codeLine="25" d="M43.58,55.25 C48.34,66.81 54.37,81.45 60.47,96.25 " fill="none" id="Port-to-Facility"
              style="stroke:#A80036;stroke-width:1.0;"/>
        <polygon fill="none" points="66.99,93.7,68.14,114.86,54.05,99.04,66.99,93.7"
                 style="stroke:#A80036;stroke-width:1.0;"/><!--MD5=[25429604eb798cf117f722ff4060e1c8]
link Warehouse to Facility-->
        <path codeLine="26" d="M134.42,55.25 C129.66,66.81 123.63,81.45 117.53,96.25 " fill="none"
              id="Warehouse-to-Facility" style="stroke:#A80036;stroke-width:1.0;"/>
        <polygon fill="none" points="123.95,99.04,109.86,114.86,111.01,93.7,123.95,99.04"
                 style="stroke:#A80036;stroke-width:1.0;"/><!--MD5=[b60904822f7f0d5c64ab98b0e13040c0]
@startuml
'https://plantuml.com/class-diagram



class Facility {
-Identification
-Name
-Continent
-Country
}

class Location{
-Latitude
-Longitude
}

class Port{
}

class Warehouse{
}

Facility -> Location

Port - -|> Facility
Warehouse - -|> Facility


@enduml

@startuml



class Facility {
-Identification
-Name
-Continent
-Country
}

class Location{
-Latitude
-Longitude
}

class Port{
}

class Warehouse{
}

Facility -> Location

Port - -|> Facility
Warehouse - -|> Facility


@enduml

PlantUML version 1.2021.11(Sat Oct 02 14:26:11 BST 2021)
(GPL source distribution)
Java Runtime: OpenJDK Runtime Environment
JVM: OpenJDK 64-Bit Server VM
Default Encoding: Cp1252
Language: pt
Country: PT
-->
    </g>
</svg>